<?xml version="1.0" encoding="UTF-8"?>
<svg id="Layer_1" data-name="Layer 1" xmlns="http://www.w3.org/2000/svg" viewBox="0 0 433.8 468.76">
  <defs>
    <style>
      .cls-1 {
        fill: #397739;
      }
    </style>
  </defs>
  <path class="cls-1" d="M433.05,344.47c-39.39,65.18-104.36,110.69-201.19,124.25-3.02.42-5.74-1.89-5.78-4.94l.33-158.19c-.03-2.44,1.65-4.85,4.09-5.03,24.1-1.83,54.32-14.02,64.22-31.29,1.4-2.45.77-5.54-1.64-7.02l-47-34.5c-2.21-1.36-3.03-4.17-1.9-6.5,3.15-6.51,4.92-13.82,4.92-21.59,0-27.65-22.36-50.07-49.95-50.07s-49.95,22.42-49.95,50.07c0,18.53,10.08,34.66,24.98,43.37,4.35,2.55,8.75,4.23,11.74,5.21,2.19.72,3.61,2.83,3.46,5.13l-9.17,143.67c-.2,3.09-3.09,5.28-6.11,4.63-5.47-1.18-14.46-3.46-25.18-7.42C65.87,363.55,0,293.17,0,200.28,0,89.67,89.46,0,199.81,0s199.81,89.67,199.81,200.28c0,35.21-9.07,68.31-24.99,97.06-1.32,2.38-.52,5.37,1.81,6.79l54.9,33.32c2.41,1.46,3.17,4.61,1.71,7.02Z"/>
</svg>